<svg width="45" height="45" viewBox="0 0 45 45" fill="none" xmlns="http://www.w3.org/2000/svg">
<path d="M22.5 45C10.0733 45 0 34.9268 0 22.5C0 10.0733 10.0733 0 22.5 0C34.9268 0 45 10.0733 45 22.5C45 34.9268 34.9268 45 22.5 45ZM15.5025 25.1325L15.5317 25.1168L17.4893 31.5743C17.7412 32.274 18.0877 32.4 18.5085 32.3415C18.9315 32.2853 19.1542 32.058 19.431 31.7925L22.104 29.2095L27.8415 33.4575C28.89 34.0358 29.6438 33.7365 29.9048 32.4855L33.633 14.886C34.0448 13.248 33.3247 12.591 32.0535 13.113L10.1543 21.573C8.66025 22.1715 8.66925 23.0085 9.88425 23.3797L15.5025 25.1347V25.1325Z" fill="#5C4646"/>
</svg>
