<svg width="30" height="39" viewBox="0 0 30 39" fill="none" xmlns="http://www.w3.org/2000/svg">
<path d="M30 34.125V10.9688L18.75 0H5C2.23858 0 0 2.18261 0 4.875V34.125C0 36.8174 2.23858 39 5 39H25C27.7614 39 30 36.8174 30 34.125ZM18.75 7.3125C18.75 9.33179 20.4289 10.9688 22.5 10.9688H27.5V34.125C27.5 35.4712 26.3807 36.5625 25 36.5625H5C3.61929 36.5625 2.5 35.4712 2.5 34.125V4.875C2.5 3.52881 3.61929 2.4375 5 2.4375H18.75V7.3125Z" fill="black"/>
<path d="M6.50769 34.3363C5.98731 34.1511 5.63756 33.7555 5.41174 33.3152C4.92558 32.3672 5.08698 31.422 5.61346 30.6262C6.108 29.8786 6.92766 29.2432 7.85391 28.7098C8.89665 28.1093 10.1807 27.5783 11.5603 27.1375C12.0781 26.2314 12.5848 25.2683 13.0588 24.2895C13.4795 23.421 13.869 22.5512 14.2145 21.7091C13.7355 20.6185 13.36 19.5406 13.141 18.5528C12.9245 17.5767 12.8427 16.611 13.0238 15.7827C13.2124 14.9203 13.7089 14.1442 14.652 13.7764C15.1309 13.5897 15.6499 13.4831 16.1554 13.5884C16.7085 13.7037 17.1079 14.0435 17.3473 14.4786C17.5679 14.8794 17.6477 15.3454 17.6647 15.7908C17.6821 16.2472 17.6358 16.7542 17.5466 17.2862C17.3382 18.5291 16.8703 20.0518 16.246 21.6606C16.6162 22.4352 17.0416 23.2191 17.5032 23.9786C17.8867 24.6095 18.2883 25.2122 18.6955 25.7698C19.9329 25.6935 21.0823 25.7245 22.0327 25.8913C22.9424 26.0508 23.8677 26.3672 24.4325 27.0241C24.7348 27.3757 24.9147 27.8049 24.9327 28.2883C24.9502 28.7557 24.8148 29.2178 24.5886 29.6588C24.3775 30.0705 24.0891 30.4271 23.7022 30.6739C23.3072 30.9259 22.8678 31.0261 22.4283 31.0089C21.6001 30.9764 20.7932 30.5316 20.0944 29.9935C19.3429 29.4149 18.5667 28.6105 17.8174 27.6785C17.0168 27.7633 16.1735 27.892 15.3183 28.0615C14.4721 28.2291 13.6309 28.4334 12.8253 28.6672C11.9805 30.0887 11.1044 31.3698 10.2727 32.3474C9.54595 33.2015 8.75329 33.946 7.95754 34.2657C7.53663 34.4347 7.02474 34.5203 6.50769 34.3363ZM9.95396 29.7031C9.54008 29.8893 9.15543 30.0834 8.80746 30.2838C7.9876 30.756 7.45452 31.2159 7.18911 31.6171C6.95564 31.97 6.94987 32.2267 7.08876 32.4976C7.11568 32.5501 7.13818 32.5839 7.15445 32.6049C7.17516 32.5999 7.20433 32.591 7.24327 32.5754C7.58523 32.438 8.13049 32.0018 8.82957 31.1802C9.19239 30.7538 9.57012 30.2558 9.95396 29.7031ZM14.055 26.4594C14.3516 26.3919 14.6486 26.3287 14.9448 26.27C15.4891 26.1621 16.0369 26.0682 16.5801 25.9903C16.3431 25.6374 16.1124 25.2763 15.8902 24.9107C15.6887 24.5791 15.4924 24.2411 15.303 23.8991C15.1258 24.2904 14.9424 24.6816 14.7543 25.0701C14.5289 25.5356 14.2951 26.0002 14.055 26.4594ZM20.1705 27.5603C20.5443 27.9544 20.9096 28.2918 21.2564 28.5588C21.8577 29.0218 22.2758 29.1733 22.5036 29.1822C22.5921 29.1857 22.6385 29.1678 22.6755 29.1442C22.7206 29.1154 22.8102 29.0389 22.9116 28.8412C23.0417 28.5875 23.0619 28.432 23.059 28.3548C23.0567 28.2935 23.0404 28.2507 22.9956 28.1985C22.8661 28.0479 22.4934 27.8295 21.7007 27.6905C21.2558 27.6124 20.7396 27.5697 20.1705 27.5603ZM15.196 19.0094C15.4257 18.2668 15.5967 17.5845 15.6961 16.9913C15.7729 16.5331 15.8023 16.1546 15.791 15.8588C15.7811 15.5998 15.7416 15.4504 15.7109 15.3764C15.6506 15.3811 15.535 15.401 15.3483 15.4738C15.1309 15.5586 14.9522 15.7314 14.8576 16.1639C14.7556 16.6305 14.7827 17.3058 14.9736 18.1664C15.0337 18.4375 15.1083 18.7193 15.196 19.0094Z" fill="black"/>
</svg>
