<svg width="33" height="33" viewBox="0 0 33 33" fill="none" xmlns="http://www.w3.org/2000/svg">
<path d="M6.48583 13.9571C9.06583 19.0275 13.2225 23.1662 18.2929 25.7642L22.2346 21.8225C22.7183 21.3388 23.435 21.1775 24.0621 21.3925C26.0688 22.0554 28.2367 22.4137 30.4583 22.4137C31.4437 22.4137 32.25 23.22 32.25 24.2054V30.4583C32.25 31.4437 31.4437 32.25 30.4583 32.25C13.6346 32.25 0 18.6154 0 1.79167C0 0.80625 0.80625 0 1.79167 0H8.0625C9.04792 0 9.85417 0.80625 9.85417 1.79167C9.85417 4.03125 10.2125 6.18125 10.8754 8.18792C11.0725 8.815 10.9292 9.51375 10.4275 10.0154L6.48583 13.9571Z" fill="#5C4646"/>
</svg>
