<svg width="29" height="20" viewBox="0 0 29 20" fill="none" xmlns="http://www.w3.org/2000/svg">
<path d="M14.5 19.813C6.49165 19.813 0 15.3779 0 9.90651C0 4.43514 6.49165 0 14.5 0C22.5084 0 29 4.43514 29 9.90651C29 15.3779 22.5084 19.813 14.5 19.813ZM9.9905 11.0656L10.0093 11.0586L11.2709 13.9018C11.4333 14.2099 11.6566 14.2654 11.9277 14.2396C12.2003 14.2148 12.3439 14.1148 12.5222 13.9979L14.2448 12.8606L17.9423 14.731C18.618 14.9856 19.1038 14.8538 19.272 14.303L21.6746 6.55414C21.94 5.83295 21.476 5.54368 20.6567 5.77351L6.54385 9.49836C5.58105 9.76187 5.58685 10.1304 6.36985 10.2938L9.9905 11.0666V11.0656Z" fill="#5C4646"/>
</svg>
