<svg width="31" height="31" viewBox="0 0 31 31" fill="none" xmlns="http://www.w3.org/2000/svg">
<path d="M0 15.5C0 24.06 6.93998 31 15.5 31C24.06 31 31 24.06 31 15.5C31 6.93998 24.06 0 15.5 0C6.93998 0 0 6.93998 0 15.5ZM19.179 15.5L12.8687 9.18897C12.6546 8.96355 12.5369 8.66338 12.5409 8.35248C12.5449 8.04157 12.6702 7.74451 12.89 7.52465C13.1099 7.30479 13.407 7.17951 13.7179 7.17553C14.0288 7.17155 14.3289 7.28918 14.5544 7.50334L21.7082 14.6572C21.9316 14.8808 22.0571 15.1839 22.0571 15.5C22.0571 15.8161 21.9316 16.1192 21.7082 16.3428L14.5544 23.4967C14.3289 23.7108 14.0288 23.8285 13.7179 23.8245C13.407 23.8205 13.1099 23.6952 12.89 23.4753C12.6702 23.2555 12.5449 22.9584 12.5409 22.6475C12.5369 22.3366 12.6546 22.0365 12.8687 21.811L19.179 15.5Z" fill="#E9E2D7"/>
</svg>
