<svg width="28" height="20" viewBox="0 0 28 20" fill="none" xmlns="http://www.w3.org/2000/svg">
<path d="M0.00561873 19.813L1.89842 14.8914C0.651211 13.3786 -0.00404688 11.658 1.88051e-05 9.9065C1.88051e-05 4.43514 6.26781 0 14 0C21.7322 0 28 4.43514 28 9.9065C28 15.3779 21.7322 19.813 14 19.813C11.5259 19.8158 9.09533 19.3525 6.95801 18.4707L0.00561873 19.813ZM8.94741 5.25837C8.76662 5.26631 8.58996 5.30001 8.42801 5.35743C8.27614 5.41829 8.13751 5.49437 8.01641 5.5833C7.84841 5.69525 7.75321 5.79233 7.65101 5.88644C7.13359 6.36294 6.85527 6.94784 6.86001 7.54875C6.86281 8.03417 7.04201 8.50671 7.32201 8.94854C7.89461 9.84211 8.83681 10.7882 10.0814 11.6649C10.381 11.8759 10.6736 12.0879 10.9886 12.285C12.5334 13.2474 14.3742 13.9415 16.3646 14.3119L17.1612 14.3981C17.4202 14.408 17.6792 14.3941 17.9396 14.3852C18.3473 14.3703 18.7455 14.2922 19.1058 14.1564C19.3382 14.0692 19.4474 14.0256 19.642 13.9384C19.642 13.9384 19.7022 13.9107 19.817 13.8493C20.006 13.7502 20.1222 13.6799 20.279 13.564C20.3952 13.4788 20.496 13.3787 20.573 13.2648C20.6822 13.1033 20.7914 12.7952 20.8362 12.5387C20.8698 12.3425 20.86 12.2355 20.8558 12.1691C20.8502 12.0631 20.7256 11.9532 20.5898 11.9066L19.775 11.6481C19.775 11.6481 18.557 11.2726 17.8136 11.0329C17.7352 11.0087 17.6512 10.9949 17.5658 10.9923C17.47 10.9853 17.3732 10.9929 17.282 11.0146C17.1907 11.0363 17.107 11.0716 17.0366 11.1181V11.1161C17.0296 11.1161 16.9358 11.1725 15.9236 12.0404C15.8655 12.0956 15.7855 12.1373 15.6937 12.1603C15.602 12.1832 15.5026 12.1863 15.4084 12.1691C15.3172 12.1519 15.2278 12.13 15.141 12.1038C14.9674 12.0522 14.9072 12.0324 14.7882 11.9958L14.7812 11.9938C13.9803 11.7464 13.2387 11.4121 12.5832 11.0031C12.4068 10.8942 12.243 10.7753 12.075 10.6604C11.5242 10.2871 11.0442 9.8649 10.647 9.40424L10.5644 9.31013C10.5051 9.24689 10.4571 9.17867 10.4216 9.10704C10.3684 8.96142 10.507 8.84452 10.507 8.84452C10.507 8.84452 10.8472 8.58101 11.0054 8.43836C11.1371 8.3198 11.26 8.19646 11.3736 8.06884C11.5388 7.88062 11.5906 7.68744 11.5038 7.53786C11.1118 6.86025 10.7058 6.18562 10.2886 5.51594C10.206 5.38319 9.96101 5.28809 9.73841 5.26927C9.66281 5.26332 9.58721 5.25738 9.51161 5.25342C9.3236 5.24681 9.1352 5.24813 8.94741 5.25738V5.25837Z" fill="#5C4646"/>
</svg>
