<svg width="38" height="33" viewBox="0 0 38 33" fill="none" xmlns="http://www.w3.org/2000/svg">
<path d="M4.75 5.89286C4.75 6.54376 5.28166 7.07143 5.9375 7.07143H32.0625C32.7183 7.07143 33.25 6.54376 33.25 5.89286C33.25 5.24195 32.7183 4.71429 32.0625 4.71429H5.9375C5.28166 4.71429 4.75 5.24195 4.75 5.89286Z" fill="black"/>
<path d="M9.5 1.17857C9.5 1.82948 10.0317 2.35714 10.6875 2.35714H27.3125C27.9683 2.35714 28.5 1.82948 28.5 1.17857C28.5 0.527664 27.9683 0 27.3125 0H10.6875C10.0317 0 9.5 0.527664 9.5 1.17857Z" fill="black"/>
<path d="M16.0669 14.322C15.7008 14.0949 15.2394 14.0829 14.8618 14.2906C14.4843 14.4983 14.25 14.893 14.25 15.3214V27.1071C14.25 27.5356 14.4843 27.9303 14.8618 28.138C15.2394 28.3457 15.7008 28.3336 16.0669 28.1066L25.5669 22.2137C25.9141 21.9983 26.125 21.6206 26.125 21.2143C26.125 20.8079 25.9141 20.4302 25.5669 20.2149L16.0669 14.322Z" fill="black"/>
<path d="M3.5625 33C1.59499 33 0 31.417 0 29.4643V12.9643C0 11.0116 1.59499 9.42857 3.5625 9.42857H34.4375C36.405 9.42857 38 11.0116 38 12.9643V29.4643C38 31.417 36.405 33 34.4375 33H3.5625ZM34.4375 30.6429C35.0933 30.6429 35.625 30.1152 35.625 29.4643V12.9643C35.625 12.3134 35.0933 11.7857 34.4375 11.7857H3.5625C2.90666 11.7857 2.375 12.3134 2.375 12.9643V29.4643C2.375 30.1152 2.90666 30.6429 3.5625 30.6429H34.4375Z" fill="black"/>
</svg>
