<svg width="44" height="44" viewBox="0 0 44 44" fill="none" xmlns="http://www.w3.org/2000/svg">
<path d="M22 0C27.9774 0 28.7232 0.0219999 31.0684 0.132C33.4114 0.242 35.0064 0.6094 36.41 1.155C37.862 1.7138 39.0852 2.4706 40.3084 3.6916C41.4271 4.79137 42.2927 6.1217 42.845 7.59C43.3884 8.9914 43.758 10.5886 43.868 12.9316C43.9714 15.2768 44 16.0226 44 22C44 27.9774 43.978 28.7232 43.868 31.0684C43.758 33.4114 43.3884 35.0064 42.845 36.41C42.2943 37.8791 41.4285 39.2098 40.3084 40.3084C39.2083 41.4267 37.8781 42.2923 36.41 42.845C35.0086 43.3884 33.4114 43.758 31.0684 43.868C28.7232 43.9714 27.9774 44 22 44C16.0226 44 15.2768 43.978 12.9316 43.868C10.5886 43.758 8.9936 43.3884 7.59 42.845C6.12112 42.2938 4.79056 41.4281 3.6916 40.3084C2.57269 39.2088 1.70705 37.8784 1.155 36.41C0.6094 35.0086 0.242 33.4114 0.132 31.0684C0.0285999 28.7232 0 27.9774 0 22C0 16.0226 0.0219999 15.2768 0.132 12.9316C0.242 10.5864 0.6094 8.9936 1.155 7.59C1.70552 6.12079 2.57137 4.79011 3.6916 3.6916C4.79088 2.57231 6.12134 1.7066 7.59 1.155C8.9936 0.6094 10.5864 0.242 12.9316 0.132C15.2768 0.0285999 16.0226 0 22 0ZM22 11C19.0826 11 16.2847 12.1589 14.2218 14.2218C12.1589 16.2847 11 19.0826 11 22C11 24.9174 12.1589 27.7153 14.2218 29.7782C16.2847 31.8411 19.0826 33 22 33C24.9174 33 27.7153 31.8411 29.7782 29.7782C31.8411 27.7153 33 24.9174 33 22C33 19.0826 31.8411 16.2847 29.7782 14.2218C27.7153 12.1589 24.9174 11 22 11ZM36.3 10.45C36.3 9.72065 36.0103 9.02118 35.4945 8.50546C34.9788 7.98973 34.2793 7.7 33.55 7.7C32.8207 7.7 32.1212 7.98973 31.6055 8.50546C31.0897 9.02118 30.8 9.72065 30.8 10.45C30.8 11.1793 31.0897 11.8788 31.6055 12.3945C32.1212 12.9103 32.8207 13.2 33.55 13.2C34.2793 13.2 34.9788 12.9103 35.4945 12.3945C36.0103 11.8788 36.3 11.1793 36.3 10.45ZM22 15.4C23.7504 15.4 25.4292 16.0954 26.6669 17.3331C27.9046 18.5708 28.6 20.2496 28.6 22C28.6 23.7504 27.9046 25.4292 26.6669 26.6669C25.4292 27.9046 23.7504 28.6 22 28.6C20.2496 28.6 18.5708 27.9046 17.3331 26.6669C16.0954 25.4292 15.4 23.7504 15.4 22C15.4 20.2496 16.0954 18.5708 17.3331 17.3331C18.5708 16.0954 20.2496 15.4 22 15.4Z" fill="#5C4646"/>
</svg>
