<svg width="45" height="45" viewBox="0 0 45 45" fill="none" xmlns="http://www.w3.org/2000/svg">
<path d="M0.0090301 45L3.05103 33.822C1.04659 30.3859 -0.00650392 26.478 3.02225e-05 22.5C3.02225e-05 10.0732 10.0733 0 22.5 0C34.9268 0 45 10.0732 45 22.5C45 34.9267 34.9268 45 22.5 45C18.5238 45.0064 14.6175 43.9541 11.1825 41.9512L0.0090301 45ZM14.3798 11.943C14.0892 11.961 13.8053 12.0376 13.545 12.168C13.3009 12.3062 13.0781 12.479 12.8835 12.681C12.6135 12.9352 12.4605 13.1557 12.2963 13.3695C11.4647 14.4517 11.0174 15.7802 11.025 17.145C11.0295 18.2475 11.3175 19.3207 11.7675 20.3242C12.6878 22.3537 14.202 24.5025 16.2023 26.4937C16.6838 26.973 17.154 27.4545 17.6603 27.9022C20.1429 30.088 23.1013 31.6643 26.3003 32.5057L27.5805 32.7015C27.9968 32.724 28.413 32.6925 28.8315 32.6722C29.4868 32.6384 30.1266 32.461 30.7058 32.1525C31.0793 31.9545 31.2548 31.8555 31.5675 31.6575C31.5675 31.6575 31.6643 31.5945 31.8488 31.455C32.1525 31.23 32.3393 31.0702 32.5913 30.807C32.778 30.6135 32.94 30.3862 33.0638 30.1275C33.2393 29.7607 33.4148 29.061 33.4868 28.4782C33.5408 28.0327 33.525 27.7897 33.5183 27.639C33.5093 27.3982 33.309 27.1485 33.0908 27.0427L31.7813 26.4555C31.7813 26.4555 29.8238 25.6027 28.629 25.0582C28.503 25.0033 28.368 24.9721 28.2308 24.966C28.0768 24.9502 27.9213 24.9675 27.7746 25.0168C27.6279 25.0661 27.4934 25.1462 27.3803 25.2517V25.2472C27.369 25.2472 27.2183 25.3755 25.5915 27.3465C25.4981 27.4719 25.3695 27.5668 25.2221 27.6189C25.0746 27.6709 24.915 27.678 24.7635 27.639C24.6169 27.5998 24.4733 27.5502 24.3338 27.4905C24.0548 27.3735 23.958 27.3285 23.7668 27.2452L23.7555 27.2407C22.4683 26.6787 21.2765 25.9196 20.223 24.9907C19.9395 24.7432 19.6763 24.4732 19.4063 24.2122C18.5211 23.3645 17.7496 22.4055 17.1113 21.3592L16.9785 21.1455C16.8832 21.0019 16.8061 20.8469 16.749 20.6842C16.6635 20.3535 16.8863 20.088 16.8863 20.088C16.8863 20.088 17.433 19.4895 17.6873 19.1655C17.899 18.8962 18.0965 18.6161 18.279 18.3262C18.5445 17.8987 18.6278 17.46 18.4883 17.1202C17.8583 15.5812 17.2058 14.049 16.5353 12.528C16.4025 12.2265 16.0088 12.0105 15.651 11.9677C15.5295 11.9542 15.408 11.9407 15.2865 11.9317C14.9844 11.9167 14.6816 11.9197 14.3798 11.9407V11.943Z" fill="#5C4646"/>
</svg>
