<svg width="28" height="20" viewBox="0 0 28 20" fill="none" xmlns="http://www.w3.org/2000/svg">
<path d="M14 0C17.8038 0 18.2784 0.00956485 19.7708 0.0573894C21.2618 0.105214 22.2768 0.264948 23.17 0.502157C24.094 0.745106 24.8724 1.07414 25.6508 1.60499C26.3627 2.08314 26.9135 2.66152 27.265 3.29989C27.6108 3.90918 27.846 4.60359 27.916 5.62225C27.9818 6.64187 28 6.96612 28 9.5649C28 12.1637 27.986 12.4879 27.916 13.5076C27.846 14.5262 27.6108 15.2197 27.265 15.8299C26.9145 16.4686 26.3636 17.0472 25.6508 17.5248C24.9507 18.011 24.1042 18.3873 23.17 18.6276C22.2782 18.8639 21.2618 19.0246 19.7708 19.0724C18.2784 19.1174 17.8038 19.1298 14 19.1298C10.1962 19.1298 9.7216 19.1202 8.2292 19.0724C6.7382 19.0246 5.7232 18.8639 4.83 18.6276C3.89526 18.388 3.04854 18.0116 2.3492 17.5248C1.63717 17.0467 1.0863 16.4683 0.735 15.8299C0.3878 15.2206 0.154 14.5262 0.0839999 13.5076C0.0181999 12.4879 0 12.1637 0 9.5649C0 6.96612 0.0139999 6.64187 0.0839999 5.62225C0.154 4.60263 0.3878 3.91013 0.735 3.29989C1.08533 2.66113 1.63633 2.08259 2.3492 1.60499C3.04874 1.11836 3.8954 0.741977 4.83 0.502157C5.7232 0.264948 6.7368 0.105214 8.2292 0.0573894C9.7216 0.0124343 10.1962 0 14 0ZM14 4.78245C12.1435 4.78245 10.363 5.28631 9.05025 6.1832C7.7375 7.08008 7 8.29652 7 9.5649C7 10.8333 7.7375 12.0497 9.05025 12.9466C10.363 13.8435 12.1435 14.3474 14 14.3474C15.8565 14.3474 17.637 13.8435 18.9497 12.9466C20.2625 12.0497 21 10.8333 21 9.5649C21 8.29652 20.2625 7.08008 18.9497 6.1832C17.637 5.28631 15.8565 4.78245 14 4.78245ZM23.1 4.54333C23.1 4.22623 22.9156 3.92212 22.5874 3.6979C22.2592 3.47368 21.8141 3.34772 21.35 3.34772C20.8859 3.34772 20.4408 3.47368 20.1126 3.6979C19.7844 3.92212 19.6 4.22623 19.6 4.54333C19.6 4.86042 19.7844 5.16453 20.1126 5.38875C20.4408 5.61298 20.8859 5.73894 21.35 5.73894C21.8141 5.73894 22.2592 5.61298 22.5874 5.38875C22.9156 5.16453 23.1 4.86042 23.1 4.54333ZM14 6.69543C15.1139 6.69543 16.1822 6.99775 16.9698 7.53588C17.7575 8.07401 18.2 8.80387 18.2 9.5649C18.2 10.3259 17.7575 11.0558 16.9698 11.5939C16.1822 12.1321 15.1139 12.4344 14 12.4344C12.8861 12.4344 11.8178 12.1321 11.0302 11.5939C10.2425 11.0558 9.8 10.3259 9.8 9.5649C9.8 8.80387 10.2425 8.07401 11.0302 7.53588C11.8178 6.99775 12.8861 6.69543 14 6.69543Z" fill="#5C4646"/>
</svg>
