<svg width="38" height="39" viewBox="0 0 38 39" fill="none" xmlns="http://www.w3.org/2000/svg">
<path d="M34.3956 12.8603L32.2407 15.0122L29.012 11.7836L25.7803 15.0122L31.1639 20.3974L29.0105 22.5509L27.9337 21.4741L18.2416 31.1662H9.62629L6.3961 34.3964L4.24265 32.2429L7.47283 29.0128V20.3974L17.1649 10.7053L16.0882 9.62858L18.2416 7.47512L23.6268 12.8588L26.8555 9.62858L23.6268 6.39839L25.7803 4.24341L34.3956 12.8588V12.8603ZM16.0882 22.5493L11.7798 18.2424L9.62629 20.3959L13.9347 24.7028L16.0882 22.5493ZM20.3951 18.2424L16.0882 13.9355L13.9347 16.0905L18.2416 20.3974L20.3951 18.2439V18.2424Z" fill="#5C4646"/>
<path d="M11.7475 20.3948L13.9341 22.5813L13.9663 22.5491L11.7798 20.3625L11.7475 20.3948ZM16.0551 16.0891L18.2407 18.2756L18.2739 18.2424L16.0874 16.0559L16.0551 16.0891ZM35.896 13.4827L35.4555 13.9221L33.3003 16.0735L32.2397 17.1331L31.1801 16.0725L29.0112 13.9036L27.9018 15.012L32.2251 19.3372L33.2846 20.3977L32.2251 21.4583L30.0708 23.6116L29.0102 24.6721L27.9331 23.595L19.3022 32.2268L18.8628 32.6663H10.2475L6.39597 36.5178L2.12155 32.2434L3.1821 31.1819L5.97311 28.3909V19.7756L6.41257 19.3372L15.0434 10.7053L15.0278 10.6897L13.9673 9.62817L18.2417 5.35376L19.3022 6.41431L23.6255 10.7366L24.7339 9.62817L22.5659 7.45923L21.5063 6.39868L22.5659 5.33813L24.7192 3.18286L25.7798 2.12134L35.896 12.2375V13.4827Z" stroke="white" stroke-width="3"/>
</svg>
