<svg width="13" height="13" viewBox="0 0 13 13" fill="none" xmlns="http://www.w3.org/2000/svg">
<path d="M6.5 0C8.26605 0 8.4864 0.00649996 9.1793 0.039C9.87155 0.0715 10.3428 0.18005 10.7575 0.34125C11.1865 0.50635 11.5479 0.72995 11.9093 1.0907C12.2398 1.41563 12.4956 1.80868 12.6587 2.2425C12.8193 2.65655 12.9285 3.12845 12.961 3.8207C12.9915 4.5136 13 4.73395 13 6.5C13 8.26605 12.9935 8.4864 12.961 9.1793C12.9285 9.87155 12.8193 10.3428 12.6587 10.7575C12.496 11.1916 12.2402 11.5847 11.9093 11.9093C11.5843 12.2397 11.1912 12.4954 10.7575 12.6587C10.3434 12.8193 9.87155 12.9285 9.1793 12.961C8.4864 12.9915 8.26605 13 6.5 13C4.73395 13 4.5136 12.9935 3.8207 12.961C3.12845 12.9285 2.6572 12.8193 2.2425 12.6587C1.80851 12.4959 1.41539 12.2401 1.0907 11.9093C0.760114 11.5844 0.504355 11.1914 0.34125 10.7575C0.18005 10.3434 0.0715 9.87155 0.039 9.1793C0.00844996 8.4864 0 8.26605 0 6.5C0 4.73395 0.00649996 4.5136 0.039 3.8207C0.0715 3.1278 0.18005 2.6572 0.34125 2.2425C0.503904 1.80842 0.759722 1.41526 1.0907 1.0907C1.41549 0.76 1.80858 0.504224 2.2425 0.34125C2.6572 0.18005 3.1278 0.0715 3.8207 0.039C4.5136 0.00844996 4.73395 0 6.5 0ZM6.5 3.25C5.63805 3.25 4.8114 3.59241 4.2019 4.2019C3.59241 4.8114 3.25 5.63805 3.25 6.5C3.25 7.36195 3.59241 8.1886 4.2019 8.7981C4.8114 9.40759 5.63805 9.75 6.5 9.75C7.36195 9.75 8.1886 9.40759 8.7981 8.7981C9.40759 8.1886 9.75 7.36195 9.75 6.5C9.75 5.63805 9.40759 4.8114 8.7981 4.2019C8.1886 3.59241 7.36195 3.25 6.5 3.25ZM10.725 3.0875C10.725 2.87201 10.6394 2.66535 10.487 2.51298C10.3347 2.3606 10.128 2.275 9.9125 2.275C9.69701 2.275 9.49035 2.3606 9.33797 2.51298C9.1856 2.66535 9.1 2.87201 9.1 3.0875C9.1 3.30299 9.1856 3.50965 9.33797 3.66202C9.49035 3.8144 9.69701 3.9 9.9125 3.9C10.128 3.9 10.3347 3.8144 10.487 3.66202C10.6394 3.50965 10.725 3.30299 10.725 3.0875ZM6.5 4.55C7.01717 4.55 7.51316 4.75545 7.87886 5.12114C8.24455 5.48684 8.45 5.98283 8.45 6.5C8.45 7.01717 8.24455 7.51316 7.87886 7.87886C7.51316 8.24455 7.01717 8.45 6.5 8.45C5.98283 8.45 5.48684 8.24455 5.12114 7.87886C4.75545 7.51316 4.55 7.01717 4.55 6.5C4.55 5.98283 4.75545 5.48684 5.12114 5.12114C5.48684 4.75545 5.98283 4.55 6.5 4.55Z" fill="#5C4646"/>
</svg>
