<svg width="13" height="13" viewBox="0 0 13 13" fill="none" xmlns="http://www.w3.org/2000/svg">
<path d="M6.5 13C2.91005 13 0 10.0899 0 6.5C0 2.91005 2.91005 0 6.5 0C10.0899 0 13 2.91005 13 6.5C13 10.0899 10.0899 13 6.5 13ZM4.4785 7.2605L4.48695 7.25595L5.05245 9.12145C5.12525 9.3236 5.22535 9.36 5.3469 9.3431C5.4691 9.32685 5.53345 9.2612 5.6134 9.1845L6.3856 8.4383L8.0431 9.6655C8.346 9.83255 8.56375 9.7461 8.63915 9.3847L9.7162 4.3004C9.83515 3.8272 9.62715 3.6374 9.2599 3.7882L2.93345 6.2322C2.50185 6.4051 2.50445 6.6469 2.85545 6.75415L4.4785 7.26115V7.2605Z" fill="#5C4646"/>
</svg>
