<svg width="13" height="13" viewBox="0 0 13 13" fill="none" xmlns="http://www.w3.org/2000/svg">
<path d="M0.0026087 13L0.881408 9.77079C0.302348 8.77815 -0.00187891 7.64919 8.73095e-06 6.5C8.73095e-06 2.91005 2.91006 0 6.5 0C10.09 0 13 2.91005 13 6.5C13 10.0899 10.09 13 6.5 13C5.35131 13.0018 4.22283 12.6979 3.23051 12.1192L0.0026087 13ZM4.15416 3.4502C4.07022 3.45541 3.98819 3.47752 3.91301 3.5152C3.8425 3.55513 3.77813 3.60504 3.72191 3.6634C3.64391 3.73685 3.59971 3.80055 3.55226 3.8623C3.31202 4.17494 3.1828 4.55872 3.18501 4.953C3.18631 5.2715 3.26951 5.58155 3.39951 5.87145C3.66536 6.45775 4.10281 7.07849 4.68066 7.65374C4.81976 7.79219 4.95561 7.93129 5.10186 8.06064C5.81906 8.69209 6.67372 9.14747 7.59785 9.39054L7.9677 9.44709C8.08795 9.45359 8.2082 9.44449 8.3291 9.43864C8.51841 9.42887 8.70325 9.37761 8.87055 9.28849C8.97845 9.23129 9.02915 9.20269 9.1195 9.14549C9.1195 9.14549 9.14745 9.12729 9.20075 9.08699C9.2885 9.02199 9.34245 8.97584 9.41525 8.89979C9.4692 8.84389 9.516 8.77824 9.55175 8.70349C9.60245 8.59754 9.65315 8.39539 9.67395 8.22704C9.68955 8.09834 9.685 8.02814 9.68305 7.98459C9.68045 7.91504 9.6226 7.84289 9.55955 7.81234L9.18125 7.6427C9.18125 7.6427 8.61575 7.39635 8.2706 7.23905C8.23421 7.22318 8.19521 7.21415 8.15555 7.21239C8.11108 7.20783 8.06615 7.21283 8.02377 7.22707C7.98139 7.24131 7.94255 7.26445 7.90985 7.29495V7.29364C7.9066 7.29364 7.86305 7.3307 7.3931 7.90009C7.36613 7.93634 7.32898 7.96373 7.28638 7.97878C7.24378 7.99383 7.19766 7.99585 7.1539 7.98459C7.11155 7.97327 7.07006 7.95893 7.02975 7.94169C6.94915 7.9079 6.9212 7.8949 6.86595 7.87085L6.8627 7.86954C6.49085 7.70719 6.14655 7.4879 5.84221 7.21955C5.76031 7.14805 5.68426 7.07004 5.60626 6.99465C5.35053 6.74975 5.12767 6.4727 4.94326 6.17045L4.90491 6.1087C4.87736 6.0672 4.85509 6.02244 4.83861 5.97545C4.81391 5.8799 4.87826 5.8032 4.87826 5.8032C4.87826 5.8032 5.03621 5.6303 5.10966 5.5367C5.17081 5.45891 5.22787 5.37798 5.2806 5.29425C5.35731 5.17075 5.38136 5.044 5.34106 4.94585C5.15906 4.50125 4.97056 4.0586 4.77686 3.6192C4.73851 3.5321 4.62476 3.4697 4.52141 3.45735C4.48631 3.45345 4.45121 3.44955 4.41611 3.44695C4.32881 3.44261 4.24134 3.44413 4.15416 3.4502Z" fill="#5C4646"/>
</svg>
