<svg width="37" height="41" viewBox="0 0 37 41" fill="none" xmlns="http://www.w3.org/2000/svg">
<path d="M31.6216 3.6535C34.1802 5.67607 35.2715 8.24019 35.1131 10.9917C34.9556 13.7253 33.578 16.4587 31.6496 18.9009L20.6115 32.8804C18.68 35.3265 16.3215 37.321 13.6702 38.1752C10.9322 39.0573 8.03046 38.6696 5.28749 36.6155L5.28767 36.6169C2.69542 34.6793 1.48604 31.9944 1.50053 29.1313C1.51479 26.3204 2.70123 23.439 4.68391 20.928L15.7205 6.94728C17.7057 4.4342 20.2568 2.58469 23.018 1.84761C25.8196 1.09981 28.7768 1.52161 31.3685 3.45883L31.6216 3.6535ZM14.5096 19.0736L9.8901 24.9232C8.72912 26.3937 8.06884 27.6912 7.94741 28.75C7.84408 29.652 8.10703 30.5315 9.29239 31.4192C9.91418 31.8849 10.4257 32.0713 10.841 32.1224C11.2514 32.1727 11.6719 32.1042 12.1365 31.8941C13.1337 31.4428 14.2052 30.4049 15.4047 28.8859L19.9641 23.1095L14.5096 19.0736Z" fill="#5C4646" stroke="white" stroke-width="3"/>
</svg>
